<svg xmlns="http://www.w3.org/2000/svg" xmlns:xlink="http://www.w3.org/1999/xlink" width="500" zoomAndPan="magnify" viewBox="0 0 375 374.999991" height="500" preserveAspectRatio="xMidYMid meet" version="1.0"><defs><clipPath id="71c68dc11c"><path d="M 124.957031 105.71875 L 237.457031 105.71875 L 237.457031 236.21875 L 124.957031 236.21875 Z M 124.957031 105.71875 " clip-rule="nonzero"/></clipPath></defs><rect x="-37.5" width="450" fill="#ffffff" y="-37.499999" height="449.999989" fill-opacity="1"/><rect x="-37.5" width="450" fill="#ffffff" y="-37.499999" height="449.999989" fill-opacity="1"/><g clip-path="url(#71c68dc11c)"><path fill="#332c54" d="M 133.535156 105.769531 C 135.226562 105.445312 134.550781 112.800781 142.960938 120.675781 C 158.40625 134.441406 181.492188 130.546875 198.175781 142.203125 C 209.664062 150.753906 209.292969 170.257812 193.660156 176.679688 C 216.492188 184.925781 213.277344 216.078125 187.941406 216.988281 L 165.707031 216.988281 C 161.535156 216.6875 157.566406 218.019531 157.429688 215.339844 C 157.34375 212.710938 162.503906 213.957031 164.007812 213.6875 L 164.007812 180.367188 C 166.511719 181.425781 171.582031 182.808594 172.542969 183.34375 C 172.542969 185.074219 172.542969 213.691406 172.542969 213.695312 C 178.019531 213.675781 184.941406 213.933594 190.207031 211.910156 C 198.121094 208.707031 202.902344 193.914062 194.445312 188.0625 C 181.085938 177.558594 138.742188 178.890625 135.472656 145.386719 C 135.511719 144.058594 137.238281 144.058594 137.398438 145.488281 C 143.828125 166.875 164.507812 168.460938 185.007812 173.8125 C 191.59375 173.347656 195.964844 165.03125 196.015625 158.816406 C 196.855469 146.25 179.285156 144.511719 160.890625 137.71875 C 150.5 133.824219 139.324219 127.765625 134.679688 115.8125 C 134.382812 115.074219 131.132812 105.617188 133.535156 105.769531 Z M 237.417969 177.144531 C 236.308594 145.917969 210.078125 121.867188 179.976562 123.5 C 228.722656 126.679688 249.492188 183.515625 216 216.324219 C 181.175781 248.65625 127.609375 224.46875 125.035156 178.554688 C 123.523438 207.222656 144.765625 231.300781 171.792969 235.484375 C 207.742188 241.066406 238.726562 212.300781 237.417969 177.144531 Z M 237.417969 177.144531 " fill-opacity="1" fill-rule="nonzero"/></g></svg>